<svg width="33" height="33" viewBox="0 0 33 33" fill="none" xmlns="http://www.w3.org/2000/svg">
<path d="M10.1596 20.9283C9.92568 20.6495 9.93952 20.2454 10.1777 19.9834L10.2482 19.9157L21.2601 10.6756C21.5641 10.4205 22.0175 10.4601 22.2727 10.7642C22.5065 11.043 22.4927 11.4471 22.2546 11.7091L22.1841 11.7768L11.1722 21.0169C10.8681 21.272 10.4147 21.2324 10.1596 20.9283Z" fill="#5D99F2"/>
<path d="M13.5086 11.2465C13.1131 11.2127 12.8198 10.8648 12.8535 10.4692C12.8842 10.1097 13.1746 9.83462 13.5243 9.81293L13.6308 9.8142L21.783 10.5097C22.1437 10.5405 22.4191 10.8325 22.4395 11.1832L22.4378 11.29L21.7078 19.44C21.6724 19.8353 21.3232 20.1271 20.9278 20.0917C20.5684 20.0595 20.2945 19.768 20.2743 19.4182L20.276 19.3117L20.9412 11.8806L13.5086 11.2465Z" fill="#5D99F2"/>
</svg>
